# xmcd CD database file
#
# Track frame offsets:
#	150
#	24015
#	38748
#	61659
#	84866
#	114519
#	131194
#	154639
#	171321
#	184901
#	199384
#	218933
#	236048
#	249288
#	272501
#	295891
#	318313
#
# Disc length: 4497 seconds
#
# Revision: 3
# Processed by: cddbd v1.5.2PL0 Copyright (c) Steve Scherf et al.
# Submitted via: CDex 1.70beta2
#
DISCID=e8118f11
DTITLE=Various Artist - ゲロッパ！ オリジナル・サウンドトラック
DYEAR=2003
DGENRE=Soundtrack
TTITLE0=Sex Machine
TTITLE1=It's A Man's World
TTITLE2=Got To Be Real
TTITLE3=Soul Train Theme
TTITLE4=Just Tell Me
TTITLE5=Best Of My Love
TTITLE6=Shine On
TTITLE7=Dance,Dance,Dance(Yowsah,Yowsah,Yowsah)
TTITLE8=Reach Out I'll Be There
TTITLE9=Mother Popcorn
TTITLE10=Nobody Could Take Your Place
TTITLE11=Ain't No Mountain High Enough
TTITLE12=My Girl
TTITLE13=My Love Is Waiting
TTITLE14=Andromeda
TTITLE15=Every Time I Close My Eyes
TTITLE16=Get Up !
EXTD=YEAR: 2003
EXTT0=
EXTT1=
EXTT2=
EXTT3=
EXTT4=
EXTT5=
EXTT6=
EXTT7=
EXTT8=
EXTT9=
EXTT10=
EXTT11=
EXTT12=
EXTT13=
EXTT14=
EXTT15=
EXTT16=
PLAYORDER=
